<?xml version="1.0" standalone="no"?><!DOCTYPE svg PUBLIC "-//W3C//DTD SVG 1.1//EN" "http://www.w3.org/Graphics/SVG/1.1/DTD/svg11.dtd"><svg class="icon" width="200px" height="200.00px" viewBox="0 0 1024 1024" version="1.1" xmlns="http://www.w3.org/2000/svg"><path d="M774.8 650.8c-37.9 0-68.7 31.6-68.7 70.5s30.8 70.5 68.7 70.5 68.7-31.6 68.7-70.5-30.8-70.5-68.7-70.5z m0 110.9c-21.4 0-38.7-18.2-38.7-40.5s17.4-40.5 38.7-40.5 38.7 18.2 38.7 40.5c0 22.4-17.3 40.5-38.7 40.5z" fill="currentColor" /><path d="M928 669.8h-32.6l23.4-24.2c5.6-5.8 5.6-15.1 0-20.9l-49.9-51.5c-2.8-2.9-6.7-4.6-10.8-4.6s-7.9 1.6-10.8 4.6l-22.3 23V563c0-8.3-6.7-15-15-15h-70.6c-8.3 0-15 6.7-15 15v33.2l-22.3-23c-2.8-2.9-6.7-4.6-10.8-4.6s-7.9 1.6-10.8 4.6l-49.9 51.5c-5.6 5.8-5.6 15.1 0 20.9l23.4 24.2h-32.6c-8.3 0-15 6.7-15 15v72.9c0 8.3 6.7 15 15 15H654l-23.4 24.2c-5.6 5.8-5.6 15.1 0 20.9l49.9 51.5c2.8 2.9 6.7 4.6 10.8 4.6s7.9-1.6 10.8-4.6l22.3-23v33.2c0 8.3 6.7 15 15 15H810c8.3 0 15-6.7 15-15v-33.2l22.3 23c2.8 2.9 6.7 4.6 10.8 4.6 4.1 0 7.9-1.6 10.8-4.6l49.9-51.5c5.6-5.8 5.6-15.1 0-20.9l-23.4-24.2H928c8.3 0 15-6.7 15-15v-72.9c0-8.3-6.7-15-15-15z m-15 72.9h-42.1c-6.3 0-12 4-14.1 10-0.8 2.3-1.7 4.6-2.8 6.8-2.5 5.6-1.4 12.2 2.9 16.6l30.3 31.2-29 30-29.6-30.6c-4.5-4.6-11.4-5.9-17.3-3.1-2.2 1-4.4 2-6.6 2.8-5.8 2.2-9.7 7.8-9.7 14v43.9h-40.6v-43.9c0-6.2-3.9-11.8-9.7-14-2.2-0.8-4.4-1.8-6.6-2.8-5.8-2.8-12.8-1.5-17.3 3.1l-29.6 30.6-29-30 30.3-31.2c4.3-4.4 5.4-11 2.9-16.6-1-2.3-1.9-4.6-2.8-6.8-2.1-6-7.8-10-14.1-10h-42.1v-42.9h42.1c6.3 0 12-4 14.1-10 0.8-2.3 1.7-4.6 2.8-6.8 2.5-5.6 1.4-12.2-2.9-16.6l-30.3-31.2 29-30 29.6 30.6c4.5 4.6 11.4 5.9 17.3 3.1 2.2-1 4.4-2 6.6-2.8 5.8-2.2 9.7-7.8 9.7-14v-43.9H795V622c0 6.2 3.9 11.8 9.7 14 2.2 0.8 4.4 1.8 6.6 2.8 5.8 2.8 12.8 1.5 17.3-3.1l29.6-30.6 29 30-30.3 31.2c-4.3 4.4-5.4 11-2.9 16.6 1 2.3 2 4.6 2.8 6.8 2.1 6 7.8 10 14.1 10H913v43z" fill="currentColor" /><path d="M542.8 867.6H206.7c-4.5 0-15.6-12.4-15.6-35.3V184.4c0-22.9 11-35.3 15.6-35.3H816c4.5 0 15.6 12.4 15.6 35.3v277.8c0 13.3 10.7 24 24 24s24-10.7 24-24V184.4c0-46.7-27.9-83.3-63.6-83.3H206.7c-35.6 0-63.6 36.6-63.6 83.3v647.8c0 46.7 27.9 83.3 63.6 83.3h336.1c13.3 0 24-10.7 24-24s-10.8-23.9-24-23.9z" fill="currentColor" /><path d="M705.3 282.6c13.3 0 24-10.7 24-24s-10.7-24-24-24H317.5c-13.3 0-24 10.7-24 24s10.7 24 24 24h387.8zM730.7 460.3c0-13.3-10.7-24-24-24H318.9c-13.3 0-24 10.7-24 24s10.7 24 24 24h387.8c13.2 0 24-10.8 24-24zM324.6 637.9c-13.3 0-24 10.7-24 24s10.7 24 24 24H503c13.3 0 24-10.7 24-24s-10.7-24-24-24H324.6z" fill="currentColor" /></svg>