<?xml version="1.0" standalone="no"?><!DOCTYPE svg PUBLIC "-//W3C//DTD SVG 1.1//EN" "http://www.w3.org/Graphics/SVG/1.1/DTD/svg11.dtd"><svg class="icon" width="200px" height="197.30px" viewBox="0 0 1038 1024" version="1.1" xmlns="http://www.w3.org/2000/svg"><path fill="currentColor" d="M148.273648 1023.927a77.300973 77.300973 0 0 1-77.081973-71.011975V442.740204l-16.747994 13.675996a33.055988 33.055988 0 0 1-43.220985-1.097l-3.656999-3.583999a32.982988 32.982988 0 0 1 1.024-43.220985l3.583999-3.364998L498.286525 7.381357a33.201988 33.201988 0 0 1 37.736987-2.778999l4.314998 2.779999 485.893829 397.549861a33.129988 33.129988 0 0 1-37.955986 54.116981l-3.949999-2.851999-16.673994-13.602996V946.480027a77.300973 77.300973 0 0 1-70.937975 77.447973h-6.362998z m-11.042996-635.377777v558.076804a11.042996 11.042996 0 0 0 8.482997 10.749996h744.637738a11.042996 11.042996 0 0 0 10.749996-8.555997V388.622223L519.496517 75.980333z m404.204858 398.13486a138.951951 138.951951 0 0 0-138.439952-138.951951h-0.512999a138.951951 138.951951 0 0 0-138.951952 138.951951 33.129988 33.129988 0 1 1-66.257976 0A205.356928 205.356928 0 0 1 302.364594 607.070147a143.55995 143.55995 0 1 1 199.724929 0 205.283928 205.283928 0 0 1 105.603963 179.394937 33.129988 33.129988 0 1 1-66.257976 0zM402.847558 581.327156a77.300973 77.300973 0 1 0-0.657999 0h-0.658z m289.459899 118.621958a29.25299 29.25299 0 0 1-33.129989-33.129988 29.25299 29.25299 0 0 1 33.129989-33.128989h103.043963a29.25299 29.25299 0 0 1 33.128989 33.129989 29.25299 29.25299 0 0 1-33.129989 33.128988z m-51.631982-141.51195a29.25299 29.25299 0 0 1-33.421988-33.129989 29.25299 29.25299 0 0 1 33.129988-33.128988h154.601946a29.25299 29.25299 0 0 1 33.128988 33.129988 29.25299 29.25299 0 0 1-33.129988 33.128989z" /></svg>