<?xml version="1.0" standalone="no"?><!DOCTYPE svg PUBLIC "-//W3C//DTD SVG 1.1//EN" "http://www.w3.org/Graphics/SVG/1.1/DTD/svg11.dtd"><svg class="icon" width="200px" height="200.00px" viewBox="0 0 1024 1024" version="1.1" xmlns="http://www.w3.org/2000/svg"><path fill="currentColor" d="M999.540606 316.369177C810.040918 193.697089 537.062975 11.056847 534.711165 8.705037a41.348659 41.348659 0 0 0-50.755899 0c-2.34981 2.35181-270.626133 182.639243-460.122822 304.921362a47.619152 47.619152 0 0 0-13.914875 64.667775 48.599073 48.599073 0 0 0 57.810329 17.636574v443.0762a185.578005 185.578005 0 0 0 184.990052 184.990052h509.507832a184.011132 184.011132 0 0 0 184.990052-184.990052v-445.623994l2.35181 1.567874a47.227184 47.227184 0 0 0 25.475942 6.859445 48.207105 48.207105 0 0 0 39.192833-20.772321 47.227184 47.227184 0 0 0-14.697813-64.668775z m-145.602235 522.637771a92.887495 92.887495 0 0 1-92.495526 92.495526H251.935013a92.887495 92.887495 0 0 1-92.495526-92.495526V336.161578c138.351821-91.319621 290.027566-192.632435 349.208784-232.609205 57.810329 39.192833 206.547311 138.938774 344.506163 229.474458zM275.843082 700.264158a46.443247 46.443247 0 0 0 46.247263 46.247263h369.981105a46.247263 46.247263 0 1 0 0-92.495526h-369.980105a46.247263 46.247263 0 0 0-46.248263 46.248263zM671.299129 554.857907a66.627616 66.627616 0 0 1 0 12.346002 22.144211 22.144211 0 0 1-2.743779 10.386161 19.596417 19.596417 0 0 1-8.229335 7.250414 32.726356 32.726356 0 0 1-15.285765 2.743779 21.16429 21.16429 0 0 1-19.596416-6.074509 52.910725 52.910725 0 0 1-7.05543-21.556259L598.792987 405.925941c-1.174905-6.663462-2.939762-9.799208-5.094588-9.799208s-4.507636 3.135747-6.466478 9.799208l-47.816136 163.825763a25.86791 25.86791 0 0 1-7.05443 12.933955 26.258878 26.258878 0 0 1-18.616496 4.898604 49.578994 49.578994 0 0 1-11.75805-0.979921 19.596417 19.596417 0 0 1-7.839366-3.331731 15.676733 15.676733 0 0 1-4.506636-5.682541 70.5473 70.5473 0 0 1-2.742779-7.839366l-23.712084-81.716398q-12.149018-40.172754-24.104052-81.717397c-1.959842-6.859446-4.114668-10.189177-6.269494-10.189176s-3.724699 3.329731-4.899604 10.189176l-19.596416 151.088792a44.68039 44.68039 0 0 1-8.231335 22.732163 28.21872 28.21872 0 0 1-22.535179 7.446399 19.596417 19.596417 0 0 1-18.225528-7.446399 35.27315 35.27315 0 0 1-2.154826-25.279957l36.253071-241.231508a35.665118 35.665118 0 0 1 11.366082-23.124132 33.510292 33.510292 0 0 1 22.732163-8.034351 39.192833 39.192833 0 0 1 23.123132 6.858446 49.578994 49.578994 0 0 1 15.285765 27.238799l48.599073 178.327591 47.423168-179.111527a46.051279 46.051279 0 0 1 15.285765-26.650847 37.232992 37.232992 0 0 1 22.339195-6.662462 34.294229 34.294229 0 0 1 22.340195 8.229335 38.016928 38.016928 0 0 1 12.541986 22.928148z" /></svg>