<?xml version="1.0" standalone="no"?><!DOCTYPE svg PUBLIC "-//W3C//DTD SVG 1.1//EN" "http://www.w3.org/Graphics/SVG/1.1/DTD/svg11.dtd"><svg class="icon" width="200px" height="200.00px" viewBox="0 0 1024 1024" version="1.1" xmlns="http://www.w3.org/2000/svg"><path d="M697.39406222 145.14403555s-80.82773333 58.54549333-141.99466667 68.73998223-143.01411555-1.45635555-162.09237333 17.47626667c-19.07825778 18.78698667-14.70919111 305.98030222-11.06830222 343.84554666 5.24288 54.46769778 26.06876445 118.69297778 108.64412445 188.45240889 92.76984889 78.35192889 161.65546667 114.32391111 206.51121777 117.9648 27.37948445 2.18453333 156.55822222-71.65269333 186.41351111-99.61472 29.85528889-27.96202667 102.38179555-113.74136889 116.50844445-207.67630222 14.12664889-93.93493333 10.04885333-301.75687111 6.5536-316.75733333s3.34961778-29.12711111-36.11761778-28.5445689c-17.47626667 0.29127111-88.25514667-12.08775111-126.70293333-16.60245333-79.08010667-9.61194667-146.65500445-67.28362667-146.65500445-67.28362667z" fill="currentColor" /><path d="M835.89347555 456.94976H677.00508445l12.96156444-87.81824H877.54524445v-27.37948445H550.01088V369.27715555h109.51793778l-12.96156445 87.81824h-86.79879111v27.37948445h82.42972445l-20.82588445 141.70339555h-84.17735111V653.26648889h357.24401778v-27.08821334h-58.39985778l-0.14563556-169.22851555z m-30.4378311 169.22851555H651.66449778l21.26279111-141.55776h132.52835556v141.55776z m0 0" fill="currentColor" /><path d="M989.68462222 210.68003555c-68.15744 0-192.53020445 4.22343111-292.14492444-92.91548444 0 0-48.05973333 64.95345778-191.36512 85.34243556-54.32206222-23.01041778-130.19818667-37.42833778-214.08426667-37.42833778-164.85944889 0-298.55288889 55.19587555-298.55288889 123.49895111 0 26.50567111 20.09770667 50.97244445 54.46769778 71.07015111C13.78076445 380.34545778-6.46257778 404.81223111-6.46257778 431.31790222c0 26.50567111 20.09770667 50.97244445 54.46769778 71.07015111C13.78076445 522.48576-6.46257778 546.95253333-6.46257778 573.45820445c0 26.50567111 20.24334222 51.11808 54.75896889 71.36142222C13.63512889 664.91733333-6.60821333 689.38410667-6.60821333 715.88977778c0 68.15744 133.69344 123.49895111 298.55288888 123.49895111 84.90552889 0 161.65546667-14.70919111 215.9775289-38.15651556 33.93308445 26.79694222 76.02176 53.73952 128.15928888 79.22574222 72.38087111 35.53507555 48.64227555 38.30215111 128.88746667-1.16508444 88.83768889-43.69066667 220.92913778-139.22759111 256.31857778-299.71797333 4.36906667-19.80643555 7.42741333-90.14840889 7.42741333-132.52835556V249.41909333c0-25.77749333-16.31118222-38.73905778-39.03032889-38.73905778zM20.33436445 288.30378667c0-57.96295111 122.33386667-104.71196445 273.06666666-104.71196445 65.68163555 0 125.97475555 8.88376889 173.16067556 23.73859556-20.09770667 1.45635555-41.65176889 2.03889778-64.95345778 1.74762667-36.99143111-0.72817778-35.09816889 27.67075555-35.09816889 44.8557511v135.44106667c-23.15605333 2.47580445-47.62282667 3.78652445-72.96341333 3.78652445-150.87843555-0.14563555-273.21230222-46.89464889-273.21230222-104.8576z m0 142.14030222c0-22.13660445 17.76753778-42.67121778 48.35100444-59.56494222 54.61333333 25.48622222 134.42161778 41.50613333 223.40494222 41.50613333 25.77749333 0 50.68117333-1.45635555 74.41976889-3.78652445v91.16785778c0 11.50520889-0.29127111 21.99096889-0.29127111 31.74855112-23.01041778 2.47580445-47.47719111 3.78652445-72.52650667 3.78652444-151.02407111 0-273.35793778-46.89464889-273.35793777-104.8576z m0 142.28593778c0-22.13660445 17.76753778-42.67121778 48.35100444-59.56494222 54.61333333 25.48622222 134.42161778 41.50613333 223.40494222 41.50613333 25.48622222 0 50.24426667-1.31072 73.83722667-3.78652445 0 31.45728 2.18453333 57.67168 16.60245333 93.35239112 3.20398222 8.00995555 7.28177778 16.74808889 11.94211556 25.77749333-31.16600889 4.80597333-65.39036445 7.42741333-101.07107556 7.42741333-150.7328 0-273.06666667-46.89464889-273.06666666-104.71196444zM293.54666667 819.87356445c-150.87843555 0-273.06666667-46.89464889-273.06666667-104.71196445 0-22.13660445 17.91317333-42.81685333 48.64227555-59.71057778C123.58997333 680.93724445 203.25262222 696.95715555 291.94467555 696.95715555c39.90414222 0 77.76938667-3.20398222 112.57628445-9.02940444 18.49571555 30.58346667 45.8752 64.80782222 86.65315555 99.61472-49.66172445 19.95207111-119.85806222 32.33109333-197.62744888 32.33109334z m713.75985778-367.0016c0 39.61287111-2.91271111 105.44014222-6.99050667 123.93585777C967.25674667 726.95808 843.75779555 816.37831111 760.59989333 857.15626667c-75.14794667 36.99143111-52.86570667 34.36999111-120.58624 1.01944888C486.36814222 782.73649778 426.22065778 695.5008 402.62769778 637.24657778c-20.09770667-49.66172445-15.00046222-79.66264889-15.00046223-135.29543111V271.99260445c0-10.19448889-4.51470222-42.23431111 32.91363556-41.94304 201.99651555 1.45635555 276.99882667-82.42972445 276.99882667-82.42972445 88.25514667 82.42972445 209.56956445 83.88608 273.35793777 83.88608 25.19495111 0 36.40888889 5.82542222 36.4088889 36.26325333v185.10279112z m0 0" fill="currentColor" /></svg>