<?xml version="1.0" standalone="no"?><!DOCTYPE svg PUBLIC "-//W3C//DTD SVG 1.1//EN" "http://www.w3.org/Graphics/SVG/1.1/DTD/svg11.dtd"><svg class="icon" width="200px" height="200.00px" viewBox="0 0 1024 1024" version="1.1" xmlns="http://www.w3.org/2000/svg"><path d="M936.302801 159.975484C929.530163 153.725857 744.88334 0 490.911156 0c-254.130008 0-434.796654 153.727009-441.556619 159.975484l-17.301964 15.906885v359.094948c0 284.394332 420.259503 473.292055 437.349497 480.259381l21.509086 8.763302 21.492958-8.763302c17.009354-6.967326 441.25249-195.866201 441.252491-480.259381V175.882369l-17.353804-15.906885z m-37.589924 376.284014c0 264.977287-394.507582 428.464083-398.462416 430.102234l-9.337001 3.788944-9.364649-3.839632c-3.981329-1.588615-394.375101-165.433684-394.375101-430.05385V203.342714l7.579041-6.913183c6.311836-5.84297 154.053026-143.401587 396.161861-143.401587 240.665373 0 393.857851 137.586266 400.287192 143.453428l7.512225 6.892446V536.26065h-0.001152z" fill="currentColor" /><path d="M314.811058 249.293891h76.830672l-39.73611 99.045937v365.841089h-69.939378V403.747814H254.941356v-64.135576h18.541521c6.008858 0 10.597294-4.954774 13.776828-14.885057l27.551353-75.43329z m107.565015 312.476759h74.717894l-25.969649 108.795356c-6.36022 25.296879-22.601187 37.95511-48.747093 37.95511h-47.691857V650.044188h22.790116c4.588436 0 8.120484-4.795797 10.597294-14.386239l14.303295-73.887299z m-24.901741-306.31814h329.050655V395.543235c0 32.136333-17.132619 48.227539-51.399009 48.227538h-82.662121v37.955111h138.297053v60.045958h-138.298205v172.410227h-76.830672v-172.409075H378.931659v-60.045958h136.701526v-37.95511h-118.161157v-188.318264h0.002304z m242.152611 132.387267c9.880747 0 14.832065-6.157467 14.832065-18.478161v-57.976958H470.064473v76.453967h169.56247v0.001152z m-28.611197 173.930873h76.30075l19.596757 74.410309c2.475659 9.226408 6.36022 13.864381 11.664051 13.864381h14.304447v60.545929h-43.454782c-23.306214 0-38.679721-12.159413-46.095178-36.43216l-32.316045-112.388459z" fill="currentColor" /></svg>