<?xml version="1.0" standalone="no"?><!DOCTYPE svg PUBLIC "-//W3C//DTD SVG 1.1//EN" "http://www.w3.org/Graphics/SVG/1.1/DTD/svg11.dtd"><svg class="icon" width="128px" height="128.00px" viewBox="0 0 1024 1024" version="1.1" xmlns="http://www.w3.org/2000/svg"><path fill="#1afa29" d="M632.32 694.784c-29.696-2.56-55.808 19.456-58.368 49.152-2.56 31.744 20.992 56.832 49.152 59.392 29.696 2.56 57.344-20.992 57.856-49.152 4.096-28.672-17.92-56.832-48.64-59.392zM280.576 610.816c-23.04-2.048-42.496 14.848-44.032 37.888-2.048 23.04 14.848 43.008 37.888 44.544 22.016 1.536 43.008-15.36 44.544-37.888 1.024-23.552-14.336-41.472-38.4-44.544zM892.416 402.432l-270.848-270.848c-60.416-60.416-158.72-60.416-219.136 0L285.184 248.832C451.584 145.92 619.52 169.984 619.52 169.984 505.344 184.32 424.96 212.48 368.128 243.712c3.584 0.512 7.168 0.512 10.752 0.512 23.552 0.512 47.616 2.56 71.168 4.608 6.656 0.512 7.168 6.656 6.656 12.8-0.512 14.336-1.024 64-1.024 77.824 0 5.632 6.144 8.192 6.144 8.192l90.624 7.168s12.8 3.584 15.872-20.48c1.024-7.68 3.584-51.2 4.096-58.88 0.512-8.192 3.072-9.728 8.192-9.728 13.312 1.024 26.112 1.024 39.424 3.072 13.824 2.56 28.16 2.56 41.984 3.584 12.8 1.024 25.6 3.584 38.912 3.072 7.68 0 8.704 2.56 6.144 12.288l-16.896 67.584c-16.384 65.536-32.768 131.072-49.152 196.096-4.096 16.896-4.096 17.92-16.896 16.896-19.456-1.536-38.912-4.608-58.368-7.168-1.024 0-2.048-0.512-3.072-0.512-12.8-2.048-12.8-2.048-9.216-19.456 2.048-11.776 9.728-61.44 12.288-72.704 1.024-5.632-4.096-7.68-4.096-7.68l-32.768-2.56s-44.544-4.608-66.56-6.144c-10.24-0.512-10.24 0-12.288 13.312-2.048 11.776-10.24 61.44-11.776 73.216-1.024 7.168-3.584 9.216-8.704 8.192-12.8-2.048-26.112-4.608-38.912-6.656-14.336-2.56-28.672-6.144-43.008-8.192-13.824-1.536-14.336-2.56-11.776-20.48 3.584-27.648 5.12-56.32 4.096-84.48-2.048-51.2-11.264-99.84-27.648-146.432C241.664 337.92 233.472 392.704 233.472 392.704s-36.352 165.376 205.312 195.584c242.176 30.72 415.744-122.368 415.744-122.368-105.984 116.736-14.848 174.08-14.848 174.08s-65.024 38.912-174.592 58.368c17.92 13.312 28.16 34.816 25.088 56.832-1.024 33.28-33.28 60.928-68.096 57.856-33.28-3.072-60.928-32.768-57.856-69.632 1.024-13.824 7.168-26.112 15.36-35.84-108.544 2.56-191.488-17.92-253.44-44.544-4.608 23.552-28.16 40.96-52.736 39.424-27.648-2.048-48.128-26.112-46.08-54.272 1.024-13.312 7.168-24.576 15.872-32.768-46.08-34.304-66.048-65.024-66.048-65.024s-62.464-80.896-11.264-182.784l-34.304 34.304c-60.416 60.416-60.416 158.72 0 219.136l270.848 270.848c60.416 60.416 158.72 60.416 219.136 0l1.024-1.024c-3.584-0.512-6.656-0.512-10.752-1.536-90.624-15.872-119.296-77.312-119.296-77.312 101.376 82.944 176.128 32.256 176.128 32.256v0.512l223.744-223.744c60.416-59.904 60.416-158.208 0-218.624z" /></svg>